<svg id="Ebene_1" data-name="Ebene 1" xmlns="http://www.w3.org/2000/svg" viewBox="0 0 100 100"><defs><style>.cls-1{fill:#1d1d1b;}</style></defs><path class="cls-1" d="M77.67,37.06,73.78,34.7l-.15-2.63c-.15-2.55-.22-2.67-2.11-3.46-2.11-.89-2.26-1.26-1.39-3.4,1-2.46,1.07-2.81,1.28-7.69.24-5.82.47-5.62-6.82-6-2.87-.17-9.67-.65-15.12-1.07a105.05,105.05,0,0,0-10.73-.49C38,10.14,30,26.08,27.07,33c-.7,1.68-2,3.15-5.4,6A36,36,0,0,0,17,43.25c-.24.74,2.91,2,13.27,5.4,4.78,1.57,9.81,3.25,11.18,3.75s3,1,3.55,1.21c.81.23,1.11.76,1.25,2.27.11,1.08,0,2-.22,2-1,0-27.47-9.14-27.75-9.57s-.46-.23-.67.12c-.56.9.11,1.31,5,3,2.46.87,5.59,2.08,7,2.69s3.6,1.48,5,1.92c9,2.91,8.89,2.8,9.12,7.86.15,3.35.07,3.94-.52,3.59-.38-.24-3.81-2.79-7.63-5.68s-8-6-9.32-6.87l-2.39-1.63.15,2.62.16,2.63,4.2,1.68A29.08,29.08,0,0,1,37,65.38c.49.42-.64.11-5.43-1.48s-6.07-2.26-5.8-3.07c.21-.64.13-.65-.58-.07-1.28,1.06-1,2.09,1.17,4.3l2,2-1.39,1.33a9,9,0,0,1-2.61,1.85l-.18.9,3,1.54a19.72,19.72,0,0,0,3.55,1.53c.9,0,7.21,2.68,9.15,3.89,1,.63,2.07,1,2.34.85a4.1,4.1,0,0,1,2.38.66A16.51,16.51,0,0,0,48.8,81a8.76,8.76,0,0,1,3,.92c.71.56,1.47,5.78.85,5.78-.18,0-4.67-1.58-10-3.51s-11.06-4-12.77-4.58c-2-.67-3.1-1.32-3.1-1.8,0-.63-.14-.61-.85.1s-.77.94-.13,1.58,26.49,10.7,27.56,10.7a37.47,37.47,0,0,0,5-4.84c2.46-2.66,7.05-7.52,10.2-10.8s6.69-7.09,7.87-8.46a15.86,15.86,0,0,1,3.7-3.24c1.54-.73,1.58-.83,1.58-4.09,0-2.89-.15-3.43-1.12-4.11-1.51-1.06-1.42-1.4.62-2.37L83,51.4V46c0-6.15.4-5.49-5.3-8.94ZM39,74.77c-1.34-1.21-4.52-4.18-7-6.58a60.32,60.32,0,0,1-4.39-4.38c.13,0,1.92.77,4,1.73A26.44,26.44,0,0,1,38,69.88c2.38,2.24,2.83,3,3.08,4.86L41.39,77Zm21.5-28.64c-.6-.08-3.66-.38-6.8-.66h0L38.25,44.11l-9.71-.85,0-3.42V36.41l2,.28c2,.29,19.63,2,26.83,2.54l4,.32.09,3.36C61.54,46.1,61.49,46.26,60.46,46.13Z"/></svg>